<svg xmlns="http://www.w3.org/2000/svg" xmlns:xlink="http://www.w3.org/1999/xlink" width="58" height="53" viewBox="0 0 58 53"><defs><path id="sifqa" d="M236 923.755C236 911.74 245.74 902 257.755 902c12.015 0 21.755 9.74 21.755 21.755v.49c0 4.414-1.314 8.52-3.573 11.95 1.826 5.558 11.106 9.394 4.063 9.394-4.608 0-8.485-1.444-11.004-2.714A21.654 21.654 0 0 1 257.755 946C245.74 946 236 936.26 236 924.245z"/><path id="sifqb" d="M254 915.5a4.5 4.5 0 1 1 9 0 4.5 4.5 0 0 1-9 0z"/><path id="sifqc" d="M225 907.5c0-8.008 6.492-14.5 14.5-14.5s14.5 6.492 14.5 14.5-6.492 14.5-14.5 14.5-14.5-6.492-14.5-14.5z"/><path id="sifqd" d="M269 934c0-5.523-4.701-10-10.5-10s-10.5 4.477-10.5 10"/><path id="sifqe" d="M230 905.5c0-6.351 5.149-11.5 11.5-11.5s11.5 5.149 11.5 11.5-5.149 11.5-11.5 11.5-11.5-5.149-11.5-11.5z"/><path id="sifqf" d="M241 901v5h4"/></defs><g><g transform="translate(-225 -893)"><g><use fill="#0b81f3" xlink:href="#sifqa"/></g><g><use fill="#fff" xlink:href="#sifqb"/></g><g><use fill="#fff" xlink:href="#sifqc"/></g><g><use fill="#fff" xlink:href="#sifqd"/></g><g><use fill="#f98638" xlink:href="#sifqe"/></g><g><use fill="#fff" fill-opacity="0" stroke="#fff" stroke-linecap="round" stroke-linejoin="round" stroke-miterlimit="50" stroke-width="3" xlink:href="#sifqf"/></g></g></g></svg>