<svg xmlns="http://www.w3.org/2000/svg" xmlns:xlink="http://www.w3.org/1999/xlink" width="53" height="49" viewBox="0 0 53 49"><defs><path id="7qt0a" d="M638 897a4 4 0 0 1 4-4h33a4 4 0 0 1 4 4v41a4 4 0 0 1-4 4h-33a4 4 0 0 1-4-4z"/><path id="7qt0b" d="M647 905.5a1.5 1.5 0 0 1 1.5-1.5h14a1.5 1.5 0 1 1 0 3h-14a1.5 1.5 0 0 1-1.5-1.5z"/><path id="7qt0c" d="M647 916.5a1.5 1.5 0 0 1 1.5-1.5h6a1.5 1.5 0 1 1 0 3h-6a1.5 1.5 0 0 1-1.5-1.5z"/><path id="7qt0d" d="M665.97 894.99a1 1 0 0 1 1-1h8a1 1 0 0 1 1 1v45.08a1 1 0 0 1-1 1h-8a1 1 0 0 1-1-1z"/><path id="7qt0e" d="M680.5 902.5l3.108 3.108"/><path id="7qt0f" d="M682.016 913.41l-16.236 16.371 17.466-7.05z"/><path id="7qt0g" d="M686.154 909l2.846 2.9-8 7.691"/></defs><g><g transform="translate(-638 -893)"><g><use fill="#0b81f3" xlink:href="#7qt0a"/></g><g><use fill="#fff" xlink:href="#7qt0b"/></g><g><use fill="#fff" xlink:href="#7qt0c"/></g><g transform="rotate(-315 673 916)"><use fill="#f98638" xlink:href="#7qt0d"/></g><g><use fill="#fff" fill-opacity="0" stroke="#fff" stroke-linecap="round" stroke-miterlimit="50" stroke-width="3" xlink:href="#7qt0e"/></g><g><use fill="#fff" xlink:href="#7qt0f"/></g><g><use fill="#fff" fill-opacity="0" stroke="#f98638" stroke-linecap="round" stroke-miterlimit="50" stroke-width="3" xlink:href="#7qt0g"/></g></g></g></svg>