<svg xmlns="http://www.w3.org/2000/svg" xmlns:xlink="http://www.w3.org/1999/xlink" width="49" height="49" viewBox="0 0 49 49"><defs><path id="i0jpa" d="M1047 917.5c0-12.979 10.521-23.5 23.5-23.5s23.5 10.521 23.5 23.5-10.521 23.5-23.5 23.5-23.5-10.521-23.5-23.5z"/><path id="i0jpb" d="M1071.88 917.5c0-12.84 5.205-23.25 11.625-23.25s11.625 10.41 11.625 23.25-5.205 23.25-11.625 23.25-11.625-10.41-11.625-23.25z"/><path id="i0jpc" d="M1058 917.5c0-12.979 5.82-23.5 13-23.5s13 10.521 13 23.5-5.82 23.5-13 23.5-13-10.521-13-23.5z"/><path id="i0jpd" d="M1071 894v47"/><path id="i0jpe" d="M1047 917h47.503"/></defs><g><g transform="translate(-1047 -893)"><g><use fill="#0b81f3" xlink:href="#i0jpa"/></g><g transform="rotate(-180 1083.5 917.5)"><use fill="#f98638" xlink:href="#i0jpb"/></g><g><use fill="#fff" fill-opacity="0" stroke="#fff" stroke-miterlimit="50" stroke-width="2" xlink:href="#i0jpc"/></g><g><use fill="#fff" fill-opacity="0" stroke="#fff" stroke-miterlimit="50" stroke-width="2" xlink:href="#i0jpd"/></g><g><use fill="#fff" fill-opacity="0" stroke="#fff" stroke-miterlimit="50" stroke-width="2" xlink:href="#i0jpe"/></g></g></g></svg>