<svg xmlns="http://www.w3.org/2000/svg" xmlns:xlink="http://www.w3.org/1999/xlink" width="115" height="141" viewBox="0 0 115 141"><defs><path id="o385a" d="M248 3078.5c0-30.652 24.848-55.5 55.5-55.5s55.5 24.848 55.5 55.5-24.848 55.5-55.5 55.5-55.5-24.848-55.5-55.5z"/><path id="o385c" d="M248 3017a7 7 0 1 1 14 0 7 7 0 0 1-14 0z"/><path id="o385d" d="M337 3138c0-7.18 5.82-13 13-13s13 5.82 13 13-5.82 13-13 13-13-5.82-13-13z"/><path id="o385e" d="M282 3056a4 4 0 0 1 4-4h35a4 4 0 0 1 4 4v42a4 4 0 0 1-4 4h-35a4 4 0 0 1-4-4z"/><path id="o385f" d="M303 3109v-17h13v17z"/><path id="o385g" d="M300 3087.5a9.5 9.5 0 1 1 19 0 9.5 9.5 0 0 1-19 0z"/><path id="o385h" d="M291.178 3062h23.457"/><path id="o385i" d="M291.178 3071h7.34"/><path id="o385j" d="M304.178 3071h1.322"/><linearGradient id="o385b" x1="248" x2="364.03" y1="3023" y2="3134" gradientUnits="userSpaceOnUse"><stop offset="0" stop-color="#ff9b56"/><stop offset="1" stop-color="#ff7f28"/></linearGradient></defs><g><g transform="translate(-248 -3010)"><use fill="url(#o385b)" xlink:href="#o385a"/></g><g transform="translate(-248 -3010)"><use fill="#ff9546" xlink:href="#o385c"/></g><g transform="translate(-248 -3010)"><use fill="#ff9546" xlink:href="#o385d"/></g><g transform="translate(-248 -3010)"><use fill="#fff" xlink:href="#o385e"/></g><g transform="translate(-248 -3010)"><use fill="#fff" xlink:href="#o385f"/><use fill="#fff" fill-opacity="0" stroke="#ff8a3a" stroke-linecap="round" stroke-linejoin="round" stroke-miterlimit="50" stroke-width="3" xlink:href="#o385f"/></g><g transform="translate(-248 -3010)"><use fill="#fff" xlink:href="#o385g"/><use fill="#fff" fill-opacity="0" stroke="#ff8939" stroke-miterlimit="50" stroke-width="3" xlink:href="#o385g"/></g><g transform="translate(-248 -3010)"><use fill="#fff" fill-opacity="0" stroke="#ff8b3c" stroke-linecap="round" stroke-miterlimit="50" stroke-width="3" xlink:href="#o385h"/></g><g transform="translate(-248 -3010)"><use fill="#fff" fill-opacity="0" stroke="#ff8b3c" stroke-linecap="round" stroke-miterlimit="50" stroke-width="3" xlink:href="#o385i"/></g><g transform="translate(-248 -3010)"><use fill="#fff" fill-opacity="0" stroke="#ff8b3c" stroke-linecap="round" stroke-miterlimit="50" stroke-width="3" xlink:href="#o385j"/></g></g></svg>