<svg xmlns="http://www.w3.org/2000/svg" xmlns:xlink="http://www.w3.org/1999/xlink" width="122" height="130" viewBox="0 0 122 130"><defs><path id="3jnfa" d="M868 3078.5c0-30.652 24.848-55.5 55.5-55.5s55.5 24.848 55.5 55.5-24.848 55.5-55.5 55.5-55.5-24.848-55.5-55.5z"/><path id="3jnfc" d="M861 3017c0-7.18 5.82-13 13-13s13 5.82 13 13-5.82 13-13 13-13-5.82-13-13z"/><path id="3jnfd" d="M969 3125a7 7 0 1 1 14 0 7 7 0 0 1-14 0z"/><path id="3jnfe" d="M923.684 3106s-28.103-7.557-24.21-43.87c3.892-36.313 14.824-3.137 23.6-9.13 8.776-5.993 12.006 7.263 24.36 9.13 4.273 35.59-23.75 43.87-23.75 43.87z"/><path id="3jnff" d="M922.99 3062a.981.981 0 0 0 .489-.13l.01-.006.009-.005a.995.995 0 0 0-.976-1.732l-.021.013a.998.998 0 0 0-.371 1.357.988.988 0 0 0 .86.503z"/><path id="3jnfg" d="M918.637 3063.091a63.69 63.69 0 0 1-12.899 4.41.937.937 0 0 0-.738.91v8.746c0 1.01.07 2.032.207 3.034a.946.946 0 0 0 1.07.8.937.937 0 0 0 .817-1.048c-.126-.92-.19-1.858-.19-2.786v-8.008a65.607 65.607 0 0 0 12.553-4.373.925.925 0 0 0 .45-1.244.961.961 0 0 0-1.27-.44z"/><path id="3jnfh" d="M940.06 3067c-.518 0-.94.406-.94.907v8.504c0 8.067-4.934 15.469-12.572 18.857a.895.895 0 0 0-.462 1.203.943.943 0 0 0 .854.529.963.963 0 0 0 .392-.083 23.267 23.267 0 0 0 9.886-8.27c2.474-3.674 3.782-7.905 3.782-12.236v-8.504c0-.5-.42-.907-.94-.907z"/><path id="3jnfi" d="M922.767 3096.034l-.037.01a.996.996 0 0 0-.697 1.216.984.984 0 0 0 1.2.706l.037-.01a.996.996 0 0 0 .697-1.216.98.98 0 0 0-1.2-.706z"/><path id="3jnfj" d="M915 3080.03l5.29 4.97 11.71-11"/><linearGradient id="3jnfb" x1="868" x2="984.03" y1="3023" y2="3134" gradientUnits="userSpaceOnUse"><stop offset="0" stop-color="#ff9b56"/><stop offset="1" stop-color="#ff7f28"/></linearGradient></defs><g><g transform="translate(-861 -3004)"><use fill="url(#3jnfb)" xlink:href="#3jnfa"/></g><g transform="translate(-861 -3004)"><use fill="#ff9b55" xlink:href="#3jnfc"/></g><g transform="translate(-861 -3004)"><use fill="#ff9b55" xlink:href="#3jnfd"/></g><g transform="translate(-861 -3004)"><g><g><use fill="#fff" xlink:href="#3jnfe"/></g><g><g><use fill="#ff8837" xlink:href="#3jnff"/><use fill="#fff" fill-opacity="0" stroke="#ff8735" stroke-miterlimit="50" xlink:href="#3jnff"/></g><g><use fill="#ff8837" xlink:href="#3jnfg"/><use fill="#fff" fill-opacity="0" stroke="#ff8634" stroke-miterlimit="50" xlink:href="#3jnfg"/></g><g><use fill="#ff8837" xlink:href="#3jnfh"/><use fill="#fff" fill-opacity="0" stroke="#ff8634" stroke-miterlimit="50" xlink:href="#3jnfh"/></g><g><use fill="#ff8837" xlink:href="#3jnfi"/><use fill="#fff" fill-opacity="0" stroke="#ff8735" stroke-miterlimit="50" xlink:href="#3jnfi"/></g></g><g><use fill="#fff" fill-opacity="0" stroke="#ff8837" stroke-linecap="round" stroke-miterlimit="50" stroke-width="3" xlink:href="#3jnfj"/></g></g></g></g></svg>