<svg xmlns="http://www.w3.org/2000/svg" xmlns:xlink="http://www.w3.org/1999/xlink" width="113" height="145" viewBox="0 0 113 145"><defs><path id="avn2a" d="M301 3324a7 7 0 0 1 7-7h16a7 7 0 0 1 0 14h-16a7 7 0 0 1-7-7z"/><path id="avn2b" d="M248 3320.5c0-30.652 24.848-55.5 55.5-55.5s55.5 24.848 55.5 55.5-24.848 55.5-55.5 55.5-55.5-24.848-55.5-55.5z"/><path id="avn2d" d="M246 3258c0-7.18 5.82-13 13-13s13 5.82 13 13-5.82 13-13 13-13-5.82-13-13z"/><path id="avn2e" d="M338 3383a7 7 0 1 1 14 0 7 7 0 0 1-14 0z"/><path id="avn2f" d="M306 3295a5 5 0 1 1 10 0 5 5 0 0 1-10 0z"/><path id="avn2g" d="M291 3288a5 5 0 1 1 10 0 5 5 0 0 1-10 0z"/><path id="avn2h" d="M282 3310a4 4 0 0 1 4-4h35a4 4 0 0 1 4 4v30a4 4 0 0 1-4 4h-35a4 4 0 0 1-4-4z"/><path id="avn2j" d="M307 3324a2 2 0 1 1 4 0 2 2 0 0 1-4 0z"/><path id="avn2k" d="M290 3317v11"/><path id="avn2l" d="M290 3334.181v.638"/><linearGradient id="avn2c" x1="248" x2="364.03" y1="3265" y2="3376" gradientUnits="userSpaceOnUse"><stop offset="0" stop-color="#ff9b56"/><stop offset="1" stop-color="#ff7f28"/></linearGradient><clipPath id="avn2i"><use fill="#fff" xlink:href="#avn2a"/></clipPath></defs><g><g transform="translate(-246 -3245)"><use fill="url(#avn2c)" xlink:href="#avn2b"/></g><g transform="translate(-246 -3245)"><use fill="#ff9546" xlink:href="#avn2d"/></g><g transform="translate(-246 -3245)"><use fill="#ff9546" xlink:href="#avn2e"/></g><g transform="translate(-246 -3245)"><g><use fill="#fff" xlink:href="#avn2f"/></g><g><use fill="#fff" xlink:href="#avn2g"/></g><g><use fill="#fff" xlink:href="#avn2h"/></g><g><use fill="#fff" fill-opacity="0" stroke="#ff8837" stroke-miterlimit="50" stroke-width="6" clip-path="url(&quot;#avn2i&quot;)" xlink:href="#avn2a"/></g><g><use fill="#ff8837" xlink:href="#avn2j"/></g><g><use fill="#fff" fill-opacity="0" stroke="#ff9044" stroke-linecap="round" stroke-miterlimit="50" stroke-width="3" xlink:href="#avn2k"/></g><g><use fill="#fff" fill-opacity="0" stroke="#ff9044" stroke-linecap="round" stroke-miterlimit="50" stroke-width="3" xlink:href="#avn2l"/></g></g></g></svg>