<svg xmlns="http://www.w3.org/2000/svg" xmlns:xlink="http://www.w3.org/1999/xlink" width="121" height="145" viewBox="0 0 121 145"><defs><path id="9arka" d="M868 3320.5c0-30.652 24.848-55.5 55.5-55.5s55.5 24.848 55.5 55.5-24.848 55.5-55.5 55.5-55.5-24.848-55.5-55.5z"/><path id="9arkc" d="M963 3383c0-7.18 5.82-13 13-13s13 5.82 13 13-5.82 13-13 13-13-5.82-13-13z"/><path id="9arkd" d="M868 3258a7 7 0 1 1 14 0 7 7 0 0 1-14 0z"/><path id="9arke" d="M903 3310.5a6.5 6.5 0 1 1 13 0 6.5 6.5 0 0 1-13 0z"/><path id="9arkf" d="M894 3328c0-4.418 6.716-8 15-8 8.284 0 15 3.582 15 8s-6.716 8-15 8c-8.284 0-15-3.582-15-8z"/><path id="9arkg" d="M904 3330.5c0-8.56 11.64-15.5 26-15.5s26 6.94 26 15.5c0 8.56-11.64 15.5-26 15.5s-26-6.94-26-15.5z"/><path id="9arkh" d="M921 3306a9 9 0 1 1 18 0 9 9 0 0 1-18 0z"/><path id="9arki" d="M909 3329.5c0-5.799 9.402-10.5 21-10.5s21 4.701 21 10.5-9.402 10.5-21 10.5-21-4.701-21-10.5z"/><path id="9arkj" d="M915.34 3329.11s3.54 3.1 11.012 3.98"/><path id="9arkk" d="M930.88 3333.51s.455.044 1.607.022"/><linearGradient id="9arkb" x1="868" x2="984.03" y1="3265" y2="3376" gradientUnits="userSpaceOnUse"><stop offset="0" stop-color="#ff9b56"/><stop offset="1" stop-color="#ff7f28"/></linearGradient></defs><g><g transform="translate(-868 -3251)"><use fill="url(#9arkb)" xlink:href="#9arka"/></g><g transform="translate(-868 -3251)"><use fill="#ff9546" xlink:href="#9arkc"/></g><g transform="translate(-868 -3251)"><use fill="#ff9546" xlink:href="#9arkd"/></g><g transform="translate(-868 -3251)"><use fill="#fff" xlink:href="#9arke"/></g><g transform="translate(-868 -3251)"><use fill="#fff" xlink:href="#9arkf"/></g><g transform="translate(-868 -3251)"><use fill="#ff8e40" xlink:href="#9arkg"/></g><g transform="translate(-868 -3251)"><use fill="#fff" xlink:href="#9arkh"/></g><g transform="translate(-868 -3251)"><use fill="#fff" xlink:href="#9arki"/></g><g transform="translate(-868 -3251)"><use fill="#fff" fill-opacity="0" stroke="#ff8836" stroke-linecap="round" stroke-miterlimit="50" stroke-width="3" xlink:href="#9arkj"/></g><g transform="translate(-868 -3251)"><use fill="#fff" fill-opacity="0" stroke="#ff8836" stroke-linecap="round" stroke-miterlimit="50" stroke-width="3" xlink:href="#9arkk"/></g></g></svg>