<svg xmlns="http://www.w3.org/2000/svg" xmlns:xlink="http://www.w3.org/1999/xlink" width="52" height="52" viewBox="0 0 52 52"><defs><path id="x25ca" d="M483 3978c0-14.36 11.64-26 26-26s26 11.64 26 26-11.64 26-26 26-26-11.64-26-26z"/><path id="x25cb" d="M499 3971a4 4 0 0 1 4-4h14a4 4 0 0 1 4 4v11a4 4 0 0 1-4 4h-14a4 4 0 0 1-4-4z"/><path id="x25cc" d="M504 3985v6.005l8-5.703"/><path id="x25cd" d="M505 3974.5a1.5 1.5 0 0 1 1.5-1.5h7a1.5 1.5 0 1 1 0 3h-7a1.5 1.5 0 0 1-1.5-1.5z"/><path id="x25ce" d="M505 3979.5a1.5 1.5 0 0 1 1.5-1.5h3a1.5 1.5 0 1 1 0 3h-3a1.5 1.5 0 0 1-1.5-1.5z"/></defs><g><g transform="translate(-483 -3952)"><use fill="#f98638" xlink:href="#x25ca"/></g><g transform="translate(-483 -3952)"><use fill="#fff" xlink:href="#x25cb"/></g><g transform="translate(-483 -3952)"><use fill="#fff" xlink:href="#x25cc"/></g><g transform="translate(-483 -3952)"><use fill="#f98638" xlink:href="#x25cd"/></g><g transform="translate(-483 -3952)"><use fill="#f98638" xlink:href="#x25ce"/></g></g></svg>