<svg xmlns="http://www.w3.org/2000/svg" xmlns:xlink="http://www.w3.org/1999/xlink" width="171" height="100" viewBox="0 0 171 100"><defs><path id="xfiea" d="M304 2374.934c0-22.607 18.327-40.934 40.934-40.934h.132c22.607 0 40.934 18.327 40.934 40.934v.132c0 22.607-18.327 40.934-40.934 40.934h-.132c-22.607 0-40.934-18.327-40.934-40.934z"/><path id="xfieb" d="M315 2375c0-16.569 13.431-30 30-30 16.569 0 30 13.431 30 30 0 16.569-13.431 30-30 30-16.569 0-30-13.431-30-30z"/><path id="xfiee" d="M334 2365a4 4 0 0 1 4-4h13a4 4 0 0 1 4 4v18a4 4 0 0 1-4 4h-13a4 4 0 0 1-4-4z"/><path id="xfief" d="M345 2361v12h11z"/><path id="xfieg" d="M345 2360v13h11z"/><path id="xfieh" d="M398 2321a4 4 0 0 1 4-4h13a4 4 0 0 1 4 4v18a4 4 0 0 1-4 4h-13a4 4 0 0 1-4-4z"/><path id="xfiei" d="M409 2317v12h11z"/><path id="xfiej" d="M409 2316v13h11z"/><path id="xfiek" d="M249 2328a4 4 0 0 1 4-4h17a4 4 0 0 1 4 4v22a4 4 0 0 1-4 4h-17a4 4 0 0 1-4-4z"/><path id="xfiel" d="M263 2323v14h13z"/><path id="xfiem" d="M262 2323v15h13z"/><path id="xfien" d="M402 2400a3 3 0 0 1 3-3h8a3 3 0 0 1 3 3v12a3 3 0 0 1-3 3h-8a3 3 0 0 1-3-3z"/><path id="xfieo" d="M410 2397v8h7z"/><path id="xfiep" d="M409 2397v8h7z"/><path id="xfieq" d="M339 2379.5a1.5 1.5 0 0 1 1.5-1.5h9a1.5 1.5 0 1 1 0 3h-9a1.5 1.5 0 0 1-1.5-1.5z"/><path id="xfier" d="M339 2372.5a1.5 1.5 0 0 1 1.5-1.5h1a1.5 1.5 0 1 1 0 3h-1a1.5 1.5 0 0 1-1.5-1.5z"/><linearGradient id="xfiec" x1="345" x2="345" y1="2334" y2="2416" gradientUnits="userSpaceOnUse"><stop offset="0" stop-color="#2c97ff"/><stop offset="1" stop-color="#0b81f3"/></linearGradient><clipPath id="xfied"><use fill="#fff" xlink:href="#xfiea"/></clipPath></defs><g><g transform="translate(-249 -2316)"><g><use fill="#0b81f3" xlink:href="#xfieb"/></g><g opacity=".15" transform="rotate(-45 345 2375)"><use fill="url(#xfiec)" xlink:href="#xfiea"/><use fill="#fff" fill-opacity="0" stroke="#188af8" stroke-miterlimit="50" stroke-width="2" clip-path="url(&quot;#xfied&quot;)" xlink:href="#xfiea"/></g><g><g><use fill="#fff" xlink:href="#xfiee"/></g><g><use fill="#c7e2fd" xlink:href="#xfief"/></g><g transform="rotate(-180 350.5 2366.5)"><use fill="#0d83f4" xlink:href="#xfieg"/></g></g><g><g><use fill="#d5eaff" xlink:href="#xfieh"/></g><g><use fill="#f4faff" xlink:href="#xfiei"/></g><g transform="rotate(-180 414.5 2322.5)"><use fill="#f4faff" xlink:href="#xfiej"/></g></g><g><g><use fill="#d5eaff" xlink:href="#xfiek"/></g><g><use fill="#f4faff" xlink:href="#xfiel"/></g><g transform="rotate(-180 268.5 2330.5)"><use fill="#f4faff" xlink:href="#xfiem"/></g></g><g><g><use fill="#d5eaff" xlink:href="#xfien"/></g><g><use fill="#f4faff" xlink:href="#xfieo"/></g><g transform="rotate(-180 412.5 2401)"><use fill="#f4faff" xlink:href="#xfiep"/></g></g><g><use fill="#c7e2fd" xlink:href="#xfieq"/></g><g><use fill="#c7e2fd" xlink:href="#xfier"/></g></g></g></svg>