<svg xmlns="http://www.w3.org/2000/svg" xmlns:xlink="http://www.w3.org/1999/xlink" width="197" height="111" viewBox="0 0 197 111"><defs><path id="pjp1a" d="M605 2374.934c0-22.607 18.327-40.934 40.934-40.934h.132c22.607 0 40.934 18.327 40.934 40.934v.132c0 22.607-18.327 40.934-40.934 40.934h-.132c-22.607 0-40.934-18.327-40.934-40.934z"/><path id="pjp1b" d="M629 2378v-19h6v19zm33-19v19h-6v-19zm-26 20h19a1 1 0 0 0 1-1h-21a1 1 0 0 0 1 1zm19-21h-19a1 1 0 0 0-1 1h21a1 1 0 0 0-1-1z"/><path id="pjp1c" d="M690 2323v-18h6.44v18zm34-18v18h-6.11v-18zm-27.56 18.89a1 1 0 0 0 1 1h19.45a1 1 0 0 0 1-1v-.89h-21.45zm21.45-19.45a1 1 0 0 0-1-1h-19.45a1 1 0 0 0-1 1v.56h21.45z"/><path id="pjp1d" d="M714 2408v-16h26v16zm5.2-1.19a1 1 0 0 0 1 1h13.61a1 1 0 0 0 1-1v-13.61a1 1 0 0 0-1-1H720.2a1 1 0 0 0-1 1z"/><path id="pjp1e" d="M543 2353v-21h8.09v21zm42-21v21h-8.1v-21zm-33.91 22.89a1 1 0 0 0 1 1h23.81a1 1 0 0 0 1-1V2353h-25.81zm25.81-24.77a1 1 0 0 0-1-1h-23.81a1 1 0 0 0-1 1v1.88h25.81z"/><path id="pjp1h" d="M616 2375c0-16.569 13.431-30 30-30 16.569 0 30 13.431 30 30 0 16.569-13.431 30-30 30-16.569 0-30-13.431-30-30z"/><path id="pjp1i" d="M637 2387v-15h18v15z"/><path id="pjp1j" d="M635 2359a1 1 0 0 1 1-1h19a1 1 0 0 1 1 1v19a1 1 0 0 1-1 1h-19a1 1 0 0 1-1-1z"/><path id="pjp1l" d="M632 2374a1 1 0 0 1 2 0v6a1 1 0 0 1-2 0z"/><path id="pjp1m" d="M698 2332v-15h18v15z"/><path id="pjp1n" d="M696.44 2304.44a1 1 0 0 1 1-1h19.45a1 1 0 0 1 1 1v19.45a1 1 0 0 1-1 1h-19.45a1 1 0 0 1-1-1z"/><path id="pjp1p" d="M693 2319a1 1 0 0 1 2 0v6a1 1 0 0 1-2 0z"/><path id="pjp1q" d="M720 2413v-11h13v11z"/><path id="pjp1r" d="M719.2 2393.2a1 1 0 0 1 1-1h13.61a1 1 0 0 1 1 1v13.61a1 1 0 0 1-1 1H720.2a1 1 0 0 1-1-1z"/><path id="pjp1t" d="M717 2403.5a.5.5 0 0 1 1 0v5a.5.5 0 0 1-1 0z"/><path id="pjp1u" d="M553 2364v-18h22v18z"/><path id="pjp1v" d="M551.09 2330.12a1 1 0 0 1 1-1h23.81a1 1 0 0 1 1 1v24.77a1 1 0 0 1-1 1h-23.81a1 1 0 0 1-1-1z"/><path id="pjp1x" d="M547 2348a1 1 0 0 1 1-1h1a1 1 0 0 1 1 1v8a1 1 0 0 1-1 1h-1a1 1 0 0 1-1-1z"/><linearGradient id="pjp1f" x1="646" x2="646" y1="2334" y2="2416" gradientUnits="userSpaceOnUse"><stop offset="0" stop-color="#2c97ff"/><stop offset="1" stop-color="#0b81f3"/></linearGradient><clipPath id="pjp1g"><use fill="#fff" xlink:href="#pjp1a"/></clipPath><clipPath id="pjp1k"><use fill="#fff" xlink:href="#pjp1b"/></clipPath><clipPath id="pjp1o"><use fill="#fff" xlink:href="#pjp1c"/></clipPath><clipPath id="pjp1s"><use fill="#fff" xlink:href="#pjp1d"/></clipPath><clipPath id="pjp1w"><use fill="#fff" xlink:href="#pjp1e"/></clipPath></defs><g><g transform="translate(-543 -2305)"><g opacity=".15" transform="rotate(-45 646 2375)"><use fill="url(#pjp1f)" xlink:href="#pjp1a"/><use fill="#fff" fill-opacity="0" stroke="#188af8" stroke-miterlimit="50" stroke-width="2" clip-path="url(&quot;#pjp1g&quot;)" xlink:href="#pjp1a"/></g><g><use fill="#0b81f3" xlink:href="#pjp1h"/></g><g><use fill="#c8e2fd" xlink:href="#pjp1i"/></g><g transform="rotate(-45 645.5 2368.5)"><use fill="#fff" xlink:href="#pjp1j"/><use fill="#fff" fill-opacity="0" stroke="#0b81f3" stroke-miterlimit="50" stroke-width="4" clip-path="url(&quot;#pjp1k&quot;)" xlink:href="#pjp1j"/></g><g><use fill="#fff" xlink:href="#pjp1l"/></g><g><g><use fill="#d4eafe" xlink:href="#pjp1m"/></g><g transform="rotate(-45 707 2314)"><use fill="#d4eafe" xlink:href="#pjp1n"/><use fill="#fff" fill-opacity="0" stroke="#f3f8fe" stroke-miterlimit="50" stroke-width="4" clip-path="url(&quot;#pjp1o&quot;)" xlink:href="#pjp1n"/></g><g><use fill="#d4eafe" xlink:href="#pjp1p"/></g></g><g><g><use fill="#d4eafe" xlink:href="#pjp1q"/></g><g transform="rotate(-45 727 2400)"><use fill="#d4eafe" xlink:href="#pjp1r"/><use fill="#fff" fill-opacity="0" stroke="#f3f8fe" stroke-miterlimit="50" stroke-width="4" clip-path="url(&quot;#pjp1s&quot;)" xlink:href="#pjp1r"/></g><g><use fill="#d4eafe" xlink:href="#pjp1t"/></g></g><g><g><use fill="#d4eafe" xlink:href="#pjp1u"/></g><g transform="rotate(-45 564 2342.5)"><use fill="#d4eafe" xlink:href="#pjp1v"/><use fill="#fff" fill-opacity="0" stroke="#f3f8fe" stroke-miterlimit="50" stroke-width="4" clip-path="url(&quot;#pjp1w&quot;)" xlink:href="#pjp1v"/></g><g><use fill="#d4eafe" xlink:href="#pjp1x"/></g></g></g></g></svg>