<svg xmlns="http://www.w3.org/2000/svg" xmlns:xlink="http://www.w3.org/1999/xlink" width="196" height="95" viewBox="0 0 196 95"><defs><path id="ll88a" d="M913 2374.934c0-22.607 18.327-40.934 40.934-40.934h.132c22.607 0 40.934 18.327 40.934 40.934v.132c0 22.607-18.327 40.934-40.934 40.934h-.132c-22.607 0-40.934-18.327-40.934-40.934z"/><path id="ll88b" d="M924 2375c0-16.569 13.431-30 30-30 16.569 0 30 13.431 30 30 0 16.569-13.431 30-30 30-16.569 0-30-13.431-30-30z"/><path id="ll88c" d="M954.5 2381.9l-7.725 4.1 1.475-8.683-6.25-6.15 8.637-1.267 3.863-7.9 3.863 7.9 8.637 1.267-6.25 6.15 1.475 8.683z"/><path id="ll88d" d="M868 2349.705l-9.889 5.295 1.889-11.216-8-7.943 11.056-1.636L868 2324l4.944 10.205L884 2335.84l-8 7.943 1.889 11.216z"/><path id="ll88e" d="M1034.5 2411.925l-5.871 3.075 1.121-6.512-4.75-4.613 6.564-.95 2.936-5.925 2.936 5.925 6.564.95-4.75 4.613 1.121 6.512z"/><path id="ll88f" d="M1036 2333.292l-3.09 1.708.59-3.618-2.5-2.562 3.455-.528L1036 2325l1.545 3.292 3.455.528-2.5 2.562.59 3.618z"/><path id="ll88g" d="M963.07 2386l-1.444-8.459 6.114-5.99-8.449-1.235-3.291-6.703v18.65z"/></defs><g><g transform="translate(-850 -2322)"><g transform="rotate(-45 954 2375)"><use fill="#d0e7fd" xlink:href="#ll88a"/></g><g><use fill="#0b81f3" xlink:href="#ll88b"/></g><g><use fill="#fff" xlink:href="#ll88c"/><use fill="#fff" fill-opacity="0" stroke="#fff" stroke-linejoin="round" stroke-miterlimit="50" stroke-width="2" xlink:href="#ll88c"/></g><g><use fill="#d0e7fd" xlink:href="#ll88d"/><use fill="#fff" fill-opacity="0" stroke="#d0e7fd" stroke-linejoin="round" stroke-miterlimit="50" stroke-width="4" xlink:href="#ll88d"/></g><g><use fill="#d0e7fd" xlink:href="#ll88e"/><use fill="#fff" fill-opacity="0" stroke="#d0e7fd" stroke-linejoin="round" stroke-miterlimit="50" stroke-width="4" xlink:href="#ll88e"/></g><g><use fill="#d0e7fd" xlink:href="#ll88f"/><use fill="#fff" fill-opacity="0" stroke="#d0e7fd" stroke-linejoin="round" stroke-miterlimit="50" stroke-width="4" xlink:href="#ll88f"/></g><g><use fill="#c8e3fd" xlink:href="#ll88g"/><use fill="#fff" fill-opacity="0" stroke="#c8e2fd" stroke-linejoin="round" stroke-miterlimit="50" stroke-width="2" xlink:href="#ll88g"/></g></g></g></svg>