<svg xmlns="http://www.w3.org/2000/svg" xmlns:xlink="http://www.w3.org/1999/xlink" width="195" height="112" viewBox="0 0 195 112"><defs><path id="sk2aa" d="M1222 2374.934c0-22.607 18.327-40.934 40.934-40.934h.132c22.607 0 40.934 18.327 40.934 40.934v.132c0 22.607-18.327 40.934-40.934 40.934h-.132c-22.607 0-40.934-18.327-40.934-40.934z"/><path id="sk2ab" d="M1233 2375c0-16.569 13.431-30 30-30 16.569 0 30 13.431 30 30 0 16.569-13.431 30-30 30-16.569 0-30-13.431-30-30z"/><path id="sk2ac" d="M1257 2367a6 6 0 1 1 12 0 6 6 0 0 1-12 0z"/><path id="sk2ad" d="M1251 2383c0-3.314 5.373-6 12-6s12 2.686 12 6-5.373 6-12 6-12-2.686-12-6z"/><path id="sk2ae" d="M1311 2312.5a5.5 5.5 0 1 1 11 0 5.5 5.5 0 0 1-11 0z"/><path id="sk2af" d="M1305 2326.5c0-3.038 4.925-5.5 11-5.5s11 2.462 11 5.5-4.925 5.5-11 5.5-11-2.462-11-5.5z"/><path id="sk2ag" d="M1337 2398c0-3.314 2.462-6 5.5-6s5.5 2.686 5.5 6-2.462 6-5.5 6-5.5-2.686-5.5-6z"/><path id="sk2ah" d="M1330 2413c0-3.314 5.373-6 12-6s12 2.686 12 6-5.373 6-12 6-12-2.686-12-6z"/><path id="sk2ai" d="M1170 2367c0-4.418 3.358-8 7.5-8 4.142 0 7.5 3.582 7.5 8s-3.358 8-7.5 8c-4.142 0-7.5-3.582-7.5-8z"/><path id="sk2aj" d="M1159 2389c0-4.418 7.611-8 17-8s17 3.582 17 8-7.611 8-17 8-17-3.582-17-8z"/><path id="sk2ak" d="M1275 2383c0 3.314-5.373 6-12 6-1.295 0-2.543-.103-3.712-.293-.824-.813-1.288-1.733-1.288-2.707 0-3.314 5.373-6 12-6 1.295 0 2.543.103 3.712.293.824.813 1.288 1.733 1.288 2.707z"/></defs><g><g transform="translate(-1159 -2307)"><g transform="rotate(-45 1263 2375)"><use fill="#d0e7fd" xlink:href="#sk2aa"/></g><g><use fill="#0b81f3" xlink:href="#sk2ab"/></g><g><use fill="#fff" xlink:href="#sk2ac"/></g><g><use fill="#fff" xlink:href="#sk2ad"/></g><g><g><use fill="#d0e7fd" xlink:href="#sk2ae"/></g><g><use fill="#d0e7fd" xlink:href="#sk2af"/></g></g><g><g><use fill="#d0e7fd" xlink:href="#sk2ag"/></g><g><use fill="#d0e7fd" xlink:href="#sk2ah"/></g></g><g><g><use fill="#d0e7fd" xlink:href="#sk2ai"/></g><g><use fill="#d0e7fd" xlink:href="#sk2aj"/></g></g><g><use fill="#c8e2fd" xlink:href="#sk2ak"/></g></g></g></svg>