<svg xmlns="http://www.w3.org/2000/svg" xmlns:xlink="http://www.w3.org/1999/xlink" width="150" height="44" viewBox="0 0 150 44"><defs><path id="woe3a" d="M344.071 4635.868h2.52c1.779 0 2.668.582 2.668 1.748 0 .874-.297 1.457-.89 1.894-.592.437-1.482.728-2.667.728h-3.41c-.444 1.166-1.185 2.769-2.223 4.663-1.927 3.35-4.595 5.099-8.152 5.099-2.223 0-4.002-.728-5.484-1.894-1.482-1.311-2.224-2.914-2.224-4.808 0-1.311.445-2.622 1.186-3.788.741-1.166 1.927-2.04 3.113-2.623 1.482-.728 3.705-1.02 6.67-1.02h3.409l.593-1.456a7.49 7.49 0 0 1-2.816.582c-1.483 0-2.817-.437-3.706-1.165-.628-.515-1.108-1.102-1.336-1.865a1.989 1.989 0 0 0-.126-.642 4.035 4.035 0 0 1-.02-.407c0-.729.296-1.748.89-3.205l2.37-5.537.297-.583c.741-1.602 1.779-2.33 3.113-2.33.593 0 1.186.145 1.63.582.445.437.593.874.593 1.457 0 .437-.148 1.02-.593 1.894l-2.075 4.808c-.296.728-.444 1.311-.444 1.457 0 .728.444 1.02 1.334 1.02.592 0 1.334-.146 1.926-.583.741-.437 1.186-.728 1.334-1.311l2.817-6.702.296-.583c.593-1.603 1.779-2.331 3.113-2.331.593 0 1.185.146 1.63.583.445.437.593.874.593 1.457 0 .437-.148.874-.296 1.31l-.297.584zm-7.56 3.933h-2.815c-2.965 0-4.447.874-4.447 2.914 0 .729.148 1.166.593 1.603.445.437.89.583 1.63.583.89 0 1.779-.437 2.52-1.166.741-.728 1.63-2.04 2.52-3.934zm-10.226-9.616h2.371c1.389 0 2.236.356 2.54 1.136.023.227.066.44.126.642l.002.116c0 .875-.296 1.457-.89 2.04-.592.437-1.481.729-2.667.729h-2.816c-1.186 0-2.076-.437-2.52-1.457-1.038.874-2.075 1.457-3.113 1.457h-2.371c-1.63 0-2.817-.583-3.854-1.603-1.038-1.02-1.482-2.477-1.482-4.37 0-2.623.889-5.1 2.816-7.14 1.927-2.04 4.002-3.205 6.373-3.205 1.779 0 3.113.583 4.002 1.894.741-1.02 1.63-1.603 2.817-1.603.592 0 1.185.146 1.63.583.445.437.593.874.593 1.457 0 .437-.148.874-.297 1.457l-.296.583zm-7.71.438h.443c1.184 0 1.924-.438 2.22-1.312l1.48-3.35c.148-.438.296-.875.296-1.166 0-.292-.148-.583-.444-.874-.444-.292-.888-.438-1.332-.438-1.036 0-1.924.583-2.96 1.603-.888 1.166-1.48 2.331-1.48 3.497 0 1.457.592 2.04 1.776 2.04zm-14.968-11.806c.593-.146 1.185-.292 1.63-.292 1.63 0 2.816.583 3.854 1.748 1.037 1.165 1.482 2.767 1.482 4.66 0 3.642-1.334 6.555-4.15 8.74-1.038.728-2.075 1.019-3.113 1.019h-1.927c-1.334 0-2.52-.437-3.409-1.456-.593 1.02-1.482 1.456-2.668 1.456-.593 0-1.037-.146-1.482-.583-.445-.437-.593-.873-.593-1.456 0-.437.148-.874.297-1.456l.296-.583 8.597-21.555.296-.583c.593-1.602 1.63-2.33 2.965-2.33.593 0 1.186.145 1.482.582.445.437.593.874.593 1.457 0 .437-.148.874-.297 1.456l-.296.583zm-4.299 9.62c.592.874 1.48 1.166 2.22 1.166.592 0 1.184-.146 1.628-.583.592-.437 1.184-1.166 1.628-2.04.444-.874.74-1.748.74-2.477 0-.582-.148-1.02-.444-1.457-.296-.437-.74-.582-1.332-.582-1.184 0-2.22.874-2.96 2.768zm-9.041 7.43h2.52c1.778 0 2.668.583 2.668 1.749 0 .874-.297 1.457-.89 1.894-.593.437-1.482.728-2.668.728h-3.409c-.445 1.166-1.186 2.769-2.223 4.663-1.927 3.35-4.595 5.099-8.152 5.099-2.224 0-4.002-.728-5.485-1.894-1.482-1.311-2.223-2.914-2.223-4.808 0-1.311.445-2.622 1.186-3.788.741-1.166 1.927-2.04 3.113-2.623 1.482-.728 3.705-1.02 6.67-1.02h3.409l.592-1.456a7.49 7.49 0 0 1-2.816.582c-1.482 0-2.816-.437-3.705-1.165-.45-.369-.824-.774-1.084-1.255.026-.153.038-.317.038-.494 0-.53-.145-.94-.435-1.242.02-.722.315-1.722.888-3.128l2.371-5.537.297-.583c.74-1.602 1.778-2.33 3.112-2.33.593 0 1.186.145 1.63.582.446.437.594.874.594 1.457 0 .437-.148 1.02-.593 1.894l-2.075 4.808c-.297.728-.445 1.311-.445 1.457 0 .728.445 1.02 1.334 1.02.593 0 1.334-.146 1.927-.583.741-.437 1.186-.728 1.334-1.311l2.816-6.702.148-.583c.593-1.603 1.78-2.331 3.261-2.331.593 0 1.186.146 1.483.583.444.437.592.874.592 1.457 0 .437-.148.874-.296 1.31l-.296.584zm-12.497-3.294c-.1.61-.408 1.051-1 1.4-.592.438-1.48.729-2.666.729h-2.815c-1.185 0-1.926-.437-2.519-1.311-.889.874-1.926 1.311-2.963 1.311h-2.667c-1.63 0-2.815-.583-3.852-1.603s-1.482-2.476-1.482-4.225c0-2.622.89-5.1 2.815-7.139 1.926-2.185 4-3.205 6.371-3.205 1.778 0 3.111.583 4.149 1.748l4.74-11.364c.89-1.894 1.927-2.914 3.408-2.914.593 0 1.186.146 1.63.583.445.437.593.874.593 1.457 0 .437-.148.874-.297 1.457l-.296.582-8.297 20.106h2.519c1.06 0 1.803.207 2.232.652l-.001.077c0 .648.144 1.19.398 1.66zm4.948 7.228h-2.82c-2.97 0-4.453.874-4.453 2.914 0 .729.148 1.166.593 1.603.446.437 1.04.583 1.633.583.89 0 1.781-.437 2.523-1.166.89-.728 1.633-2.04 2.524-3.934zm-17.945-9.178h.74c.89 0 1.631-.292 1.928-1.02l1.482-3.643c.148-.437.296-.728.296-1.02 0-.437-.148-.728-.593-1.02-.296-.29-.74-.437-1.334-.437-1.037 0-2.075.583-2.964 1.749-.89 1.165-1.334 2.33-1.334 3.642.148 1.166.593 1.749 1.779 1.749zm-11.865-.438h2.37c.889 0 1.63.146 2.074.438.444.29.593.728.593 1.456 0 .875-.297 1.457-.89 2.04-.592.437-1.48.729-2.666.729h-3.704c-1.185 0-1.925-.437-2.37-1.312a3.673 3.673 0 0 1-2.815 1.312h-2.963c-1.185 0-2.222-.437-2.963-1.166-.888-.728-1.185-1.748-1.185-2.914 0-.728.148-1.457.593-2.33l2.815-6.994c.74-1.894 1.926-2.914 3.259-2.914.592 0 1.185.146 1.481.583.445.437.593.874.593 1.31 0 .438-.148.875-.296 1.458l-.149.583-2.222 5.39-.296.583c-.148.291-.148.583-.148.729 0 .582.444 1.02 1.185 1.02 1.778 0 2.815-.73 3.407-2.04l2.667-6.41c.74-1.895 1.926-2.915 3.26-2.915.592 0 1.036.146 1.48.583.445.437.593.874.593 1.457 0 .437-.148 1.02-.592 2.04zm-16.89-11.215h.593c1.778 0 2.668.583 2.668 1.894 0 .875-.297 1.458-.89 1.895-.593.438-1.482.73-2.668.73h-1.482l-2.816 6.85h2.371c1.78 0 2.668.583 2.668 1.895 0 .875-.296 1.458-.889 1.895-.593.437-1.482.729-2.52.729h-3.705c-1.038 0-1.927-.292-2.52-.73-.593-.436-.89-1.165-.89-2.04 0-.437.149-1.02.445-1.749l.445-.875 2.372-5.976h-.297c-1.482 0-2.371-.583-2.371-1.749 0-.875.296-1.458.889-2.04.593-.438 1.482-.73 2.52-.73h.889l1.038-2.769.148-.583c.593-1.603 1.63-2.332 3.112-2.332.593 0 1.038.146 1.483.583.444.437.593.874.593 1.312 0 .583-.149 1.166-.593 2.04zm-18.083 1.454l1.927 2.331 1.185 1.311c2.076 2.623 3.261 5.245 3.261 8.16 0 2.767-1.037 5.244-2.964 7.284-2.52 2.914-5.929 4.37-10.227 4.37-3.261 0-5.93-1.02-8.004-2.913-2.075-1.894-3.113-4.371-3.113-7.43 0-3.643 1.63-6.848 4.891-9.325 1.779-1.311 3.261-2.04 4.743-2.04.741 0 1.334.146 1.779.583.445.437.741 1.02.741 1.603 0 .874-.593 1.602-1.63 2.33l-1.63 1.02c-1.038.583-1.78 1.458-2.372 2.477-.593 1.02-1.038 2.04-.89 3.06 0 1.603.593 2.914 1.63 4.08 1.187 1.02 2.52 1.602 4.3 1.602 1.926 0 3.557-.728 5.039-2.04 1.482-1.31 2.075-3.06 2.075-4.808a6.678 6.678 0 0 0-.89-3.35c-.592-1.02-1.778-2.477-3.705-4.517-1.334-1.457-2.223-2.623-2.816-3.788h-5.633c-1.926 0-2.964-.583-2.964-1.894 0-.874.296-1.603 1.038-2.186.592-.437 1.63-.728 2.816-.728h3.557c.296-2.623 1.482-4.954 3.854-6.702 2.223-1.748 4.891-2.623 8.152-2.623 2.372 0 4.298.583 5.78 1.894 1.483 1.312 2.224 2.914 2.224 4.954 0 2.623-1.186 4.662-3.557 6.12-1.334.728-3.41 1.165-6.374 1.165zm-2.372-4.954h5.04c2.816 0 4.298-.728 4.298-2.185 0-.583-.296-1.02-.89-1.311-.592-.292-1.333-.583-2.37-.583-1.483 0-2.817.437-4.15 1.311-1.187.728-1.928 1.603-1.928 2.768z"/></defs><g><g transform="translate(-200 -4606)"><use fill="#fff" xlink:href="#woe3a"/></g></g></svg>