<svg xmlns="http://www.w3.org/2000/svg" xmlns:xlink="http://www.w3.org/1999/xlink" width="179" height="53" viewBox="0 0 179 53"><defs><path id="xeffa" d="M371.925 73.977h3.007c2.122 0 3.184.702 3.184 2.106 0 1.053-.354 1.755-1.062 2.281-.707.527-1.768.878-3.183.878h-4.069c-.53 1.404-1.415 3.334-2.653 5.616-2.3 4.036-5.483 6.142-9.728 6.142-2.653 0-4.776-.877-6.545-2.281-1.768-1.58-2.653-3.51-2.653-5.792 0-1.58.53-3.159 1.415-4.563s2.3-2.457 3.715-3.159c1.769-.877 4.422-1.228 7.96-1.228h4.067l.708-1.755a8.866 8.866 0 0 1-3.36.702c-1.77 0-3.361-.527-4.423-1.404-.75-.62-1.323-1.327-1.594-2.246a2.415 2.415 0 0 0-.15-.774 4.906 4.906 0 0 1-.024-.49c0-.878.353-2.106 1.06-3.861l2.83-6.669.355-.702c.884-1.93 2.122-2.808 3.714-2.808.708 0 1.415.176 1.946.702.53.527.707 1.053.707 1.755 0 .527-.177 1.229-.707 2.282l-2.477 5.791c-.353.877-.53 1.58-.53 1.755 0 .877.53 1.228 1.592 1.228.707 0 1.592-.175 2.3-.702.883-.526 1.414-.877 1.591-1.579l3.36-8.073.354-.702c.708-1.93 2.123-2.808 3.715-2.808.707 0 1.415.176 1.945.702.531.527.708 1.053.708 1.755 0 .527-.177 1.053-.354 1.58l-.354.702zm-9.03 4.738h-3.358c-3.533 0-5.3 1.053-5.3 3.51 0 .878.177 1.404.707 1.93.53.527 1.06.703 1.943.703 1.06 0 2.12-.527 3.004-1.404.883-.878 1.943-2.457 3.003-4.739zM350.7 67.132h2.83c1.657 0 2.667.428 3.03 1.368.028.274.079.531.15.774.002.046.003.092.003.14 0 1.053-.353 1.755-1.06 2.457-.708.526-1.77.877-3.185.877h-3.36c-1.415 0-2.477-.526-3.007-1.755-1.238 1.053-2.476 1.755-3.715 1.755h-2.83c-1.945 0-3.36-.702-4.598-1.93-1.239-1.229-1.77-2.984-1.77-5.265 0-3.159 1.062-6.142 3.361-8.6 2.3-2.456 4.776-3.86 7.606-3.86 2.123 0 3.715.702 4.776 2.281.884-1.228 1.945-1.93 3.36-1.93.708 0 1.416.175 1.946.702.53.526.708 1.053.708 1.755 0 .526-.177 1.053-.354 1.755l-.354.702zm-9.198.527h.53c1.416 0 2.3-.527 2.654-1.58l1.769-4.036c.176-.526.353-1.053.353-1.404 0-.35-.177-.702-.53-1.053-.531-.35-1.062-.526-1.592-.526-1.238 0-2.3.702-3.538 1.93-1.061 1.404-1.769 2.808-1.769 4.212 0 1.755.708 2.457 2.123 2.457zm-17.865-14.22c.708-.175 1.415-.35 1.946-.35 1.946 0 3.36.701 4.599 2.105 1.238 1.403 1.769 3.333 1.769 5.614 0 4.386-1.592 7.895-4.953 10.527-1.238.877-2.476 1.228-3.714 1.228h-2.3c-1.592 0-3.007-.526-4.068-1.755-.707 1.229-1.769 1.755-3.184 1.755-.707 0-1.238-.176-1.769-.702-.53-.526-.707-1.053-.707-1.754 0-.527.177-1.053.354-1.755l.353-.702 10.26-25.966.353-.701c.708-1.93 1.946-2.808 3.538-2.808.707 0 1.415.176 1.768.702.531.527.708 1.053.708 1.755 0 .526-.177 1.052-.354 1.754l-.354.702zm-5.13 11.587c.708 1.053 1.77 1.404 2.654 1.404.708 0 1.415-.175 1.946-.702.707-.526 1.415-1.403 1.945-2.456.531-1.053.885-2.106.885-2.984 0-.702-.177-1.228-.53-1.755-.355-.526-.885-.702-1.593-.702-1.415 0-2.653 1.053-3.537 3.335zm-10.789 8.95h3.007c2.123 0 3.184.703 3.184 2.107 0 1.053-.354 1.755-1.061 2.281-.708.527-1.769.878-3.184.878h-4.068c-.53 1.404-1.415 3.334-2.653 5.616-2.3 4.036-5.484 6.142-9.729 6.142-2.653 0-4.775-.877-6.544-2.281-1.769-1.58-2.653-3.51-2.653-5.792 0-1.58.53-3.159 1.415-4.563.884-1.404 2.3-2.457 3.714-3.159 1.769-.877 4.422-1.228 7.96-1.228h4.068l.707-1.755a8.866 8.866 0 0 1-3.36.702c-1.769 0-3.36-.527-4.422-1.404-.532-.44-.976-.924-1.285-1.497a3.68 3.68 0 0 0 .047-.61c0-.643-.177-1.141-.53-1.505.027-.87.38-2.071 1.06-3.759l2.83-6.669.354-.702c.884-1.93 2.123-2.808 3.715-2.808.707 0 1.415.176 1.945.702.53.527.708 1.053.708 1.755 0 .527-.177 1.229-.708 2.282L299.76 64.5c-.354.877-.53 1.58-.53 1.755 0 .877.53 1.228 1.591 1.228.708 0 1.592-.175 2.3-.702.884-.526 1.415-.877 1.591-1.579l3.361-8.073.177-.702c.708-1.93 2.123-2.808 3.891-2.808.708 0 1.415.176 1.77.702.53.527.707 1.053.707 1.755 0 .527-.177 1.053-.354 1.58l-.354.702zm-14.904-3.953c-.122.727-.49 1.255-1.191 1.672-.708.527-1.77.878-3.184.878h-3.36c-1.416 0-2.3-.527-3.008-1.58-1.061 1.053-2.3 1.58-3.537 1.58h-3.184c-1.946 0-3.36-.702-4.599-1.93-1.238-1.23-1.769-2.984-1.769-5.09 0-3.159 1.061-6.142 3.36-8.6 2.3-2.632 4.777-3.86 7.607-3.86 2.122 0 3.714.702 4.952 2.106l5.66-13.69c1.062-2.28 2.3-3.509 4.068-3.509.708 0 1.415.176 1.946.702.53.526.708 1.053.708 1.755 0 .526-.177 1.053-.354 1.755l-.354.702-9.905 24.218h3.007c1.257 0 2.142.247 2.655.776a3.425 3.425 0 0 0-.002.102c0 .787.176 1.444.484 2.013zm5.884 8.692h-3.361c-3.538 0-5.306 1.053-5.306 3.51 0 .878.177 1.404.707 1.93.53.527 1.238.703 1.946.703 1.061 0 2.122-.527 3.007-1.404 1.061-.878 1.945-2.457 3.007-4.739zM277.295 67.66h.885c1.061 0 1.945-.351 2.3-1.229l1.768-4.387c.177-.526.354-.877.354-1.228 0-.527-.177-.878-.708-1.229-.353-.35-.884-.526-1.592-.526-1.238 0-2.476.702-3.537 2.106s-1.592 2.808-1.592 4.387c.177 1.404.707 2.106 2.122 2.106zm-14.15-.527h2.83c1.062 0 1.946.176 2.477.527.53.35.707.877.707 1.755 0 1.053-.354 1.755-1.061 2.457-.708.526-1.769.877-3.184.877h-4.422c-1.415 0-2.3-.526-2.83-1.58a4.37 4.37 0 0 1-3.36 1.58h-3.538c-1.415 0-2.653-.526-3.538-1.404-1.061-.877-1.415-2.106-1.415-3.51 0-.877.177-1.755.708-2.808l3.36-8.423c.885-2.282 2.3-3.51 3.892-3.51.707 0 1.415.175 1.769.702.53.526.707 1.053.707 1.58 0 .526-.177 1.052-.354 1.754l-.177.702-2.653 6.494-.354.701c-.176.351-.176.702-.176.878 0 .702.53 1.228 1.415 1.228 2.122 0 3.36-.877 4.068-2.457l3.184-7.721c.884-2.282 2.299-3.51 3.89-3.51.708 0 1.24.175 1.77.702.53.526.707 1.053.707 1.755 0 .526-.177 1.228-.707 2.457zm-20.164-13.51h.708c2.122 0 3.184.702 3.184 2.282 0 1.054-.354 1.756-1.062 2.283-.707.526-1.769.877-3.184.877h-1.768l-3.361 8.252h2.83c2.123 0 3.184.702 3.184 2.282 0 1.054-.354 1.756-1.061 2.283-.708.526-1.77.877-3.007.877h-4.422c-1.238 0-2.3-.35-3.007-.877-.708-.527-1.061-1.405-1.061-2.458 0-.527.176-1.23.53-2.107l.53-1.054 2.83-7.198h-.353c-1.769 0-2.83-.702-2.83-2.106 0-1.054.354-1.756 1.061-2.458.708-.527 1.77-.878 3.007-.878h1.062l1.238-3.336.177-.702c.707-1.931 1.945-2.81 3.714-2.81.707 0 1.238.176 1.769.703.53.527.707 1.053.707 1.58 0 .702-.177 1.405-.707 2.458zm-21.579 1.752l2.3 2.808 1.415 1.58c2.476 3.159 3.89 6.317 3.89 9.827 0 3.335-1.237 6.318-3.537 8.775-3.007 3.51-7.075 5.265-12.204 5.265-3.891 0-7.075-1.228-9.552-3.51-2.476-2.281-3.714-5.265-3.714-8.95 0-4.388 1.946-8.248 5.837-11.232 2.122-1.58 3.891-2.457 5.66-2.457.884 0 1.592.176 2.123.702.53.527.884 1.229.884 1.93 0 1.054-.708 1.931-1.946 2.809l-1.945 1.228c-1.238.702-2.123 1.755-2.83 2.983-.708 1.229-1.239 2.457-1.062 3.686 0 1.93.708 3.51 1.946 4.914 1.415 1.228 3.007 1.93 5.13 1.93 2.299 0 4.244-.877 6.013-2.457 1.769-1.58 2.477-3.685 2.477-5.791a8.103 8.103 0 0 0-1.062-4.037c-.707-1.228-2.122-2.983-4.422-5.44-1.592-1.755-2.653-3.159-3.36-4.563h-6.722c-2.3 0-3.537-.702-3.537-2.281 0-1.053.354-1.93 1.238-2.633.707-.526 1.946-.877 3.36-.877h4.246c.353-3.16 1.768-5.967 4.598-8.073 2.654-2.106 5.837-3.159 9.729-3.159 2.83 0 5.13.702 6.898 2.281 1.769 1.58 2.653 3.51 2.653 5.967 0 3.16-1.415 5.616-4.245 7.371-1.592.878-4.068 1.404-7.606 1.404zm-2.83-5.957h6.02c3.363 0 5.133-.879 5.133-2.638 0-.703-.354-1.23-1.062-1.582-.708-.352-1.593-.704-2.832-.704-1.77 0-3.364.528-4.957 1.583-1.417.88-2.302 1.934-2.302 3.341z"/></defs><g><g transform="translate(-200 -38)"><use fill="#0b81f3" xlink:href="#xeffa"/></g></g></svg>