<svg xmlns="http://www.w3.org/2000/svg" xmlns:xlink="http://www.w3.org/1999/xlink" width="640" height="483" viewBox="0 0 640 483"><defs><path id="n36ja" d="M1403.15 208.64v-63.47h63.35v63.47z"/><path id="n36jb" d="M1310 562.049L1325.214 593s1.786-16.92 1.786-22.537c0-5.617-8.5-13.463-8.5-13.463z"/><path id="n36jc" d="M1321 584.611s5.09-7.397 5.09-20.611 5.865 8.877 2.933 23.237c-2.933 14.361-2.933 7.763-2.933 7.763z"/><path id="n36jd" d="M1053 293.547L1064.573 276s8.332 7.335 11.201 15.665C1078.643 299.995 1083 319 1083 319z"/><path id="n36je" d="M1041.343 246.7s-75.826-30.071-84.707-41.055C947.754 194.66 947 216.782 947 216.782s51.153 35.36 95 46.218"/><path id="n36jf" d="M919.935 148L895 209.899 935.429 236 968 173.61z"/><path id="n36jg" d="M948.036 217l-10.23-4.694s-2.616-1.42-1.443-3.195c1.172-1.775 2.479-2.895 7.637-1.448 5.158 1.448 8 3.222 8 3.222z"/><path id="n36jh" d="M1248.307 179.687L1269.949 217 1315 197.09 1283.046 142 1241 164.73z"/><path id="n36ji" d="M919 148l-25.65 59-3.35-2.085z"/><path id="n36jj" d="M904 141s8.901-10.607 19.444-6.403 9.454 6.403 9.454 6.403-7.697-15-14.398-15-14.5 15-14.5 15z"/><path id="n36jk" d="M1121.06 376.033v43.518h-19.002L1089 444.094s17 6.906 43.418 6.906 23.24-63.734 23.24-63.734l-2.89-50.266-14.369 1.162z"/><path id="n36jl" d="M1031.751 432s-12.093 11.71-15.557 18.763c-3.463 7.053-2.333 9.237 0 9.237 2.334 0 8.732-6.222 13.805-11.108s10.166-8.78 14.985-8.78c4.82 0-13.233-8.112-13.233-8.112z"/><path id="n36jm" d="M1020.997 403.192l-3.061-3.061s-4.041-3.062-6.224 0c-2.182 3.061-23.738 20.813-27.119 34.467-3.38 13.653 4.982 6.048 4.982 6.048s11.704-15.472 24.682-17.567c12.978-2.096 6.74-19.887 6.74-19.887z"/><path id="n36jn" d="M1091.677 341.546l-19.52 75.179s-1.174 1.912-4.707 1.912-44.457-15.517-44.457-15.517-4.76.661-7.822 8.09c-3.062 7.427 0 12.034 0 12.034s36.636 24.419 52.28 26.576c15.643 2.157 21.816.578 27.541-9.945 5.725-10.522 26.507-64.369 26.507-64.369l27.079-39.146s-20.856.411-30.64 1.586c-9.785 1.175-26.261 3.6-26.261 3.6z"/><path id="n36jo" d="M1073 240.64s4.195-5.129 4.195-6.602c0-1.474-4.195-11.64-4.195-11.64l10.817-4.398 6.26 7.859s8.201 4.615 13.052 3.461c4.851-1.153-.066 16.537-10.894 19.155-10.828 2.62-19.235-7.835-19.235-7.835z"/><path id="n36jp" d="M1126 211.376s14.59-15.482 19.247-22.532c4.657-7.05 13.874-27.348 21.047-34.829 7.174-7.48 9.581-9.468 8.378-12.76-1.204-3.292-6.31-11.067-6.31-11.067s4.334.069 6.31 2.528c1.975 2.459 10.741-18.675 10.741-18.675s-.554 10.439-1.81 13.293c-1.255 2.854 9.496-11.697 9.496-11.697s-4.756 13.51-4.756 14.551c0 1.04 9.296-9.215 9.296-9.215l-6.148 11.206 8.204-4.295-8.204 9.09s-1.033 2.748-2.09 4.281c-1.058 1.534-5.696 1.296-7.586 6.153-1.889 4.857-6.587 19.974-10.02 26.031-3.433 6.057-10.841 17.296-15.571 24.419-4.73 7.123-20.87 26.142-20.87 26.142z"/><path id="n36jq" d="M1070.07 179s15.93 20.695 15.93 28.782-4.141 14.109-7 14.109c-2.86 0-18.887 2.09-25.662-12.042-6.775-14.132-2.969-28.001-2.969-28.001z"/><path id="n36jr" d="M1053.955 183.729s15.302 1.885 21.525-4.71c6.223-6.593-.605-20.137-4.126-22.132-3.52-1.996-8.265-.604-9.97 3.98-1.704 4.584-5.923 5.249-8.652 5.249-2.729 0-7.536-2.88-11.194-.951-3.658 1.929-2.565 3.946-4.46 11.255-1.894 7.309-7.078 2.6-7.078 9.237 0 6.879 2.728 3.626 2.728 13.237 0 9.61 11.168 18.79 19.245 19.667 8.077.878 8.555 0 8.555 0s-4.912-6.078-4.912-16.394c-1.947-17.952 2.885-5.7 0-9.631-2.884-3.932-1.661-8.807-1.661-8.807z"/><path id="n36js" d="M1040.174 271.165s-.348-20.94 0-26.654c4.095 0 19.022.744 20.912 0 9.243-3.638 11.853-4.716 11.853-4.716s10.407 9.55 20.639 4.716c10.231-4.834 8.43-15.796 8.43-15.796s14.119-13.148 24.345-17.715c13 0 14.09 17.782 14.09 17.782l-9.013 22.186S1153 287.865 1153 337.18c-7.725 1.2-5.356.19-28.488 2.218-17.342 1.52-30.934 2.602-33.097 2.602-5.152-15.886-5.087-27.554-8.531-37.584-4.69-13.656-12.16-23.174-13.682-25.972-10.825-3.966-29.028-7.28-29.028-7.28z"/><path id="n36jt" d="M1292.66 285.248s.393-29.248 25.626-29.248c25.234 0 30.95 31.57 30.95 38.442 0 6.873-6.732 37 30.883 53.243 9.459 4.085 11.324 10.71 11.857 18.288.534 7.578-7.962 18.836-28.283 22.095-20.32 3.26-37.361-4.882-37.361-4.882s-14.589 5.85-29.115.426c-14.526-5.424-13.087-22.236-13.087-22.236s12.39-45.575 10.122-58.038c-2.269-12.463-1.593-18.09-1.593-18.09z"/><path id="n36ju" d="M1052 205.5a3.5 3.5 0 1 1 7 0 3.5 3.5 0 0 1-7 0z"/><path id="n36jv" d="M1318.7 296.111s.145 12.818-4.726 15.266c-4.87 2.448-10.725 10.002-8.48 15.881 2.246 5.879 8.48 5.736 8.48 5.736s11.907.22 11.907-8.28c0-8.498-1.47-10.582-1.47-10.582s.173-8.186 3.803-13.517c3.63-5.33-9.514-4.504-9.514-4.504z"/><path id="n36jw" d="M1327.344 261s-16.577 7.278-13.996 24.032c2.58 16.753 6.622 17.968 9.695 17.968 3.072 0 16.517-4.884 20.118-11.426 3.601-6.542 7.839-1.072 7.839-3.807s-2.976-4.012-5.407-2.735c-2.432 1.276.03-8.717-9.888-12.633-9.92-3.915-8.361-11.399-8.361-11.399z"/><path id="n36jx" d="M1356 312.631s10.136-4.413 19.713-8.88c5.703-2.66 11.543-4.52 26.102-12.751 7.087-4.006 26.985-16.94 26.985-16.94v-14.9s3.906 2.92 3.906 5.13c0 2.208 13.106-9.29 14.035-9.29.929 0 .971 2.381-2.27 5.391-3.243 3.01-4.17 3.899-4.17 3.899s10.293-5.13 12.068-5.13c1.776 0 .02 2.333-1.95 3.731a692.853 692.853 0 0 0-5.949 4.314s9.415-3.656 10.333-2.915c.917.74-2.434 2.915-2.434 2.915l-6.6 2.516s9.034-.626 9.034.61c0 1.238-10.333 2.492-10.333 2.492s-1.561 2.798-4.17 3.886c-2.607 1.088-5.424 1.466-5.424 1.466s-24.294 23.898-33.06 28.64c-8.767 4.743-26.103 13.186-26.103 13.186L1361.407 327z"/><path id="n36jy" d="M1300 299.113s-10.624-15.54-13.503-26.96c-2.88-11.42-10.544-54.907-10.544-54.907s2.11-5.6 3.154-7.401c3.231-5.58 4.226-6.993 4.226-8.845-3.578.785-4.46 2.666-5.806 4.1-1.346 1.434-2.458 4.201-2.458 4.201H1268s1.691 6.58 1.691 10.663v44.598L1286.497 308z"/><path id="n36jz" d="M1407 397.825l16.854-30.425 47.708 30.425-17.989 33.69z"/><path id="n36jA" d="M1428.56 364.834l1.91-2.834 43.609 34.102z"/><path id="n36jB" d="M1289.582 393s-34.538 62.606-40.093 83.667c-5.555 21.06-5.32 27.843 6.936 40.214 12.256 12.37 49.158 47.119 52.871 47.119 3.713 0 10.704-6.867 10.704-6.867s-23.651-33.773-37-49.51c-13.349-15.738-10.398-9.51.296-20.233 10.695-10.723 26-31.603 26-31.603s1.118-45.667-3.065-54.227c-4.184-8.56-16.649-8.56-16.649-8.56z"/><path id="n36jC" d="M1379.312 469.353s11.555-6.319 13.682-7.675c2.126-1.356 21.006 0 21.006 0s-11.342 10.515-29.42 16.575c-18.077 6.06-5.268-8.9-5.268-8.9z"/><path id="n36jD" d="M1291.505 393s-3.01 63.433 0 83.36c3.01 19.926 3.547 35.64 17.98 35.64 14.432 0 76.816-33.757 78.336-35.64 1.52-1.884-9.838-7.925-9.838-7.925l-7.904 3.236c-7.905 3.237-31.302 4.178-39.811 11.237-8.804 6.171 12.074-53.676 9.485-69.107-2.59-15.43-6.594-20.801-9.485-20.801-16.363 1.08-38.763 0-38.763 0z"/><path id="n36jE" d="M1387 464.184s3.796-4.782 14.12-4.782c10.322 0 13.88-.905 13.88 0s-6.864 6.46-8.894 7.386c-2.03.926.847-1.41-2.13-2.604-2.976-1.194-16.976 0-16.976 0z"/><path id="n36jF" d="M1338.185 402.717c1.265-6.605-5.292-18.666-4.027-25.272 2.832-14.785 12.291-39.458 12.291-39.458s14.395-2.753 15.795-2.753c1.399 0 1.399-15.327-4.795-23.541-8.537-8.22-33.994 1.011-33.994 1.011s1.842 7.262.544 11.754c-1.299 4.492-5.896 4.872-10.308 4.173-4.412-.699-7.39-3.848-5.203-8.724 2.187-4.877 6.129-8.214 6.129-8.214S1303.6 309.31 1300.343 297c-2.387-14.408-9.62 1.54-16.343 14.992-9.305 16.127 8.226 17.814 8.226 17.814s0 35.294-3.414 65.456c8.595 1.183 20.599 6.554 26.967 7.455 20.396 2.886 24.85 0 22.406 0z"/><path id="n36jG" d="M1266 161v7.04l27 1.96v-4.5z"/><path id="n36jH" d="M1266 177v5.221l27 1.779v-4.085z"/><path id="n36jI" d="M921 185c0-6.075 4.925-11 11-11s11 4.925 11 11-4.925 11-11 11-11-4.925-11-11z"/><path id="n36jJ" d="M905 213v-4h30v4z"/><path id="n36jK" d="M1413.7 208.48v-34.59h42.04v34.59z"/><path id="n36jM" d="M1401.95 199.06v-22.24h2.92v22.24z"/><path id="n36jN" d="M1399.56 200.25a3.587 3.587 0 0 1 3.585-3.59 3.587 3.587 0 0 1 3.585 3.59 3.587 3.587 0 0 1-3.585 3.59 3.587 3.587 0 0 1-3.585-3.59z"/><path id="n36jO" d="M835 296.98c0-13.796 11.162-24.98 24.93-24.98 13.768 0 24.93 11.184 24.93 24.98 0 13.796-11.162 24.98-24.93 24.98-13.768 0-24.93-11.184-24.93-24.98z"/><path id="n36jP" d="M859.26 281.45v17.552h14.824"/><path id="n36jQ" d="M1425.383 380L1420 398.101l16 4.899-10.617-7.59z"/><path id="n36jR" d="M887 340a8 8 0 1 1 16 0 8 8 0 0 1-16 0z"/><path id="n36jS" d="M1319 286l14 5.12s-6.42 3.111-10.21 1.073C1319 290.156 1319 286 1319 286z"/><path id="n36jT" d="M1068 209.59s9.432-5.401 10.113-6.59c.682-1.189 2.432 5.733-1.804 8.102-4.237 2.37-8.309-1.512-8.309-1.512z"/><clipPath id="n36jL"><use fill="#fff" xlink:href="#n36ja"/></clipPath></defs><g><g transform="translate(-835 -114)"><g><use fill="#d18f78" xlink:href="#n36jb"/></g><g><use fill="#533487" xlink:href="#n36jc"/></g><g/><g/><g><use fill="#f3fafb" xlink:href="#n36jd"/></g><g><use fill="#ffc1b1" xlink:href="#n36je"/></g><g><use fill="#0b81f3" xlink:href="#n36jf"/></g><g><use fill="#ebab92" xlink:href="#n36jg"/></g><g transform="rotate(-150 1279 178)"><use fill="#f3fafb" xlink:href="#n36jh"/></g><g><use fill="#0b81f3" xlink:href="#n36ji"/></g><g transform="rotate(-8 919.5 134.5)"><use fill="#fff" xlink:href="#n36jj"/></g><g><use fill="#011b69" xlink:href="#n36jk"/></g><g><use fill="#bc6827" xlink:href="#n36jl"/></g><g><g><use fill="#c57538" xlink:href="#n36jm"/></g><g><use fill="#013080" xlink:href="#n36jn"/></g></g><g><use fill="#ffc1b1" xlink:href="#n36jo"/></g><g><use fill="#ffc1b1" xlink:href="#n36jp"/></g><g><use fill="#ffc1b1" xlink:href="#n36jq"/></g><g><use fill="#011b68" xlink:href="#n36jr"/></g><g><use fill="#0b81f3" xlink:href="#n36js"/></g><g transform="rotate(19 1324.5 322.5)"><use fill="#011b68" xlink:href="#n36jt"/></g><g><use fill="#ffc1b1" xlink:href="#n36ju"/></g><g><use fill="#ffbea4" xlink:href="#n36jv"/></g><g><use fill="#ffbea4" xlink:href="#n36jw"/></g><g><use fill="#ffbea4" xlink:href="#n36jx"/></g><g><use fill="#ffbea4" xlink:href="#n36jy"/></g><g transform="rotate(168 1441.5 397)"><g><use fill="#f98638" xlink:href="#n36jz"/></g><g><use fill="#f98638" xlink:href="#n36jA"/></g></g><g><use fill="#56358c" xlink:href="#n36jB"/></g><g><use fill="#d18f78" xlink:href="#n36jC"/></g><g><use fill="#633f9d" xlink:href="#n36jD"/></g><g><use fill="#533487" xlink:href="#n36jE"/></g><g><use fill="#ffd720" xlink:href="#n36jF"/></g><g><use fill="#e1ebec" xlink:href="#n36jG"/></g><g><use fill="#e1ebec" xlink:href="#n36jH"/></g><g><use fill="#fcfdff" xlink:href="#n36jI"/></g><g transform="rotate(-330 920 211)"><use fill="#fcfdff" xlink:href="#n36jJ"/></g><g transform="rotate(32 1432.5 181)"><g><use fill="#f98638" xlink:href="#n36jK"/></g><g transform="rotate(-45 1434.5 177)"><use fill="#f98638" xlink:href="#n36ja"/><use fill="#fff" fill-opacity="0" stroke="#fff" stroke-linejoin="round" stroke-miterlimit="50" stroke-width="8" clip-path="url(&quot;#n36jL&quot;)" xlink:href="#n36ja"/></g><g><use fill="#f98638" xlink:href="#n36jM"/></g><g><use fill="#f98638" xlink:href="#n36jN"/></g></g><g><g><use fill="#0b81f3" xlink:href="#n36jO"/></g><g><use fill="#fff" fill-opacity="0" stroke="#fafcfe" stroke-miterlimit="50" stroke-width="3" xlink:href="#n36jP"/></g></g><g><use fill="#f3fafb" xlink:href="#n36jQ"/></g><g><use fill="#0b81f3" xlink:href="#n36jR"/></g><g><use fill="#fff" xlink:href="#n36jS"/></g><g><use fill="#fff" xlink:href="#n36jT"/></g></g></g></svg>