<svg xmlns="http://www.w3.org/2000/svg" xmlns:xlink="http://www.w3.org/1999/xlink" width="56" height="49" viewBox="0 0 56 49"><defs><path id="kiw3a" d="M250 1940a4 4 0 0 1 4-4h33a4 4 0 0 1 4 4v41a4 4 0 0 1-4 4h-33a4 4 0 0 1-4-4z"/><path id="kiw3b" d="M260 1948.5a1.5 1.5 0 0 1 1.5-1.5h15a1.5 1.5 0 1 1 0 3h-15a1.5 1.5 0 0 1-1.5-1.5z"/><path id="kiw3c" d="M260 1959.5a1.5 1.5 0 0 1 1.5-1.5h7a1.5 1.5 0 1 1 0 3h-7a1.5 1.5 0 0 1-1.5-1.5z"/><path id="kiw3d" d="M287.621 1966l-8.621 9 13-4.192v-4.24z"/><path id="kiw3e" d="M281 1957.9a3 3 0 0 1 6 0v16a3 3 0 0 1-6 0z"/><path id="kiw3f" d="M280 1956c0-7.18 5.82-13 13-13s13 5.82 13 13-5.82 13-13 13-13-5.82-13-13z"/><path id="kiw3g" d="M295.1 1951c-2.761 0-5 2.079-5 4.643"/></defs><g><g transform="translate(-250 -1936)"><g><use fill="#0b81f3" xlink:href="#kiw3a"/></g><g><use fill="#fff" xlink:href="#kiw3b"/></g><g><use fill="#fff" xlink:href="#kiw3c"/></g><g><use fill="#fff" xlink:href="#kiw3d"/></g><g><g transform="rotate(-315 284 1966)"><use fill="#f98638" xlink:href="#kiw3e"/></g><g><use fill="#f98638" xlink:href="#kiw3f"/></g><g><use fill="#fff" fill-opacity="0" stroke="#fff" stroke-linecap="round" stroke-miterlimit="50" stroke-width="3.5" xlink:href="#kiw3g"/></g></g></g></g></svg>