<svg xmlns="http://www.w3.org/2000/svg" xmlns:xlink="http://www.w3.org/1999/xlink" width="51" height="55" viewBox="0 0 51 55"><defs><path id="w2rma" d="M1049.066 1982.98s-22.961-6.34-19.7-36.325c3.26-29.985 12.347-2.837 19.7-7.785s0 44.11 0 44.11zm3.316-43.994c7.353 4.949 17.023-22.316 20.284 7.669 3.261 29.985-20.284 36.225-20.284 36.225s-7.353-48.842 0-43.894z"/><path id="w2rmb" d="M1048.092 1974.721c-9.967-2.752-14.244-10.636-12.828-23.652 2.741-.63 5.199-1.38 7.373-2.249"/><path id="w2rmc" d="M1049 1939a6 6 0 0 1 6-6h17a6 6 0 0 1 6 6v25a6 6 0 0 1-6 6h-17a6 6 0 0 1-6-6z"/><path id="w2rmd" d="M1052 1948a4 4 0 0 1 4-4h18a4 4 0 0 1 4 4v15a4 4 0 0 1-4 4h-18a4 4 0 0 1-4-4z"/><path id="w2rme" d="M1060 1953a5 5 0 1 1 10 0 5 5 0 0 1-10 0z"/><path id="w2rmf" d="M1063 1956a2 2 0 1 1 4 0v4a2 2 0 1 1-4 0z"/><path id="w2rmg" d="M1072 1939.97c0-3.849-3.134-6.97-7-6.97s-7 3.121-7 6.971V1944"/></defs><g><g transform="translate(-1027 -1930)"><g><g><use fill="#0b81f3" xlink:href="#w2rma"/><use fill="#fff" fill-opacity="0" stroke="#0b81f3" stroke-linejoin="round" stroke-miterlimit="50" stroke-width="4" xlink:href="#w2rma"/></g></g><g><g><use fill="#fff" fill-opacity="0" stroke="#fff" stroke-linecap="round" stroke-linejoin="round" stroke-miterlimit="50" stroke-width="3" xlink:href="#w2rmb"/></g></g><g><use fill="#fff" xlink:href="#w2rmc"/></g><g><use fill="#f98638" xlink:href="#w2rmd"/></g><g><use fill="#fff" xlink:href="#w2rme"/></g><g><use fill="#fff" xlink:href="#w2rmf"/></g><g><use fill="#fff" fill-opacity="0" stroke="#f98638" stroke-miterlimit="50" stroke-width="3" xlink:href="#w2rmg"/></g></g></g></svg>